<svg width="64" height="64" viewBox="0 0 64 64" fill="none" xmlns="http://www.w3.org/2000/svg">
<path d="M40.5173 20.1867C41.816 19.752 43.3093 19.368 44.608 18.984C40.8533 17.3947 36.1387 15.712 31.904 14.6507C31.2293 14.8454 29.2107 15.3734 27.8133 15.808C29.256 16.24 34.0213 17.3467 40.5173 20.1867ZM16.7947 38.28C18.3333 39.1947 19.968 40.4454 21.5573 41.504C32.096 33.3227 42.4907 27.0187 53.896 23.4587C52.3067 22.64 50.912 21.9174 49.1307 21.0534C42.2987 22.7867 30.6053 27.4534 16.7947 38.28ZM14.7733 21.0534C9.14133 23.6507 3.224 27.2134 0 29.28C1.15467 29.8107 2.30933 30.2427 3.896 31.0134C11.0187 26.2 16.6 23.2667 18.8133 22.304C17.2267 21.7254 15.736 21.344 14.7733 21.0534ZM36.2827 21.6774C34.4533 20.6667 28.1013 18.3094 23.7227 17.2987C22.424 17.7787 20.5947 18.5014 19.344 19.032C20.9307 19.464 26.8507 21.0534 31.904 23.6027C33.2027 22.976 35.032 22.208 36.2827 21.6774ZM27.2853 25.816C25.792 25.096 24.1573 24.4214 22.904 23.8427C19.104 25.72 14.1467 28.56 7.89067 33.0347C9.23733 33.7547 10.6827 34.6214 12.2213 35.488C17.0347 31.928 21.8933 28.56 27.2853 25.816ZM31.904 49.3494C42.0107 40.6854 56.2053 32.264 64 29.232C62.292 28.1646 60.5591 27.1377 58.8027 26.152C48.7467 29.4747 37.0053 36.8374 26.5147 45.1627C28.2933 46.5094 30.1733 47.904 31.904 49.3494ZM39.5067 48.7227H39.2187L38.7387 48.0027H38.448V48.7227H38.256V47.1334H38.976C39.1227 47.1334 39.2667 47.1334 39.3627 47.2294C39.5067 47.28 39.5547 47.424 39.5547 47.568C39.5547 47.856 39.3147 48 39.0267 48L39.5067 48.7227ZM38.736 47.808C38.976 47.808 39.2667 47.856 39.2667 47.568C39.2667 47.376 39.0747 47.328 38.8827 47.328H38.448V47.808H38.736ZM37.3413 47.904C37.3413 47.1334 37.968 46.5094 38.784 46.5094C39.6027 46.5094 40.2293 47.1334 40.2293 47.904C40.2286 48.2871 40.0761 48.6544 39.8052 48.9253C39.5343 49.1962 39.1671 49.3487 38.784 49.3494C38.5936 49.3523 38.4047 49.3168 38.2283 49.2451C38.0519 49.1735 37.8918 49.067 37.7574 48.9322C37.623 48.7973 37.5172 48.6368 37.4462 48.4601C37.3751 48.2835 37.3377 48.0944 37.3413 47.904ZM37.6293 47.904C37.6293 48.5307 38.16 49.0587 38.832 49.0587C38.9805 49.0587 39.1275 49.0295 39.2647 48.9726C39.4019 48.9158 39.5265 48.8325 39.6315 48.7275C39.7365 48.6225 39.8198 48.4979 39.8766 48.3607C39.9334 48.2235 39.9627 48.0765 39.9627 47.928C39.9627 47.7795 39.9334 47.6325 39.8766 47.4953C39.8198 47.3582 39.7365 47.2335 39.6315 47.1285C39.5265 47.0235 39.4019 46.9403 39.2647 46.8834C39.1275 46.8266 38.9805 46.7974 38.832 46.7974C38.112 46.7974 37.632 47.328 37.632 47.904" fill="black"/>
</svg>
