<svg width="64" height="64" viewBox="0 0 64 64" fill="none" xmlns="http://www.w3.org/2000/svg">
<g clip-path="url(#clip0_31_143)">
<path d="M11.6 20.7733C11.6 20.7733 10.9413 19.7067 10.168 20.1653C9.79467 20.3893 9.17067 21.0133 8.42667 21.92L9.112 23.2107C9.53252 22.6004 9.99308 22.0186 10.4907 21.4693C10.28 21.7093 9.83467 22.264 9.2 23.2347C10.0907 23.1733 10.976 23.064 11.856 22.9067C12.12 21.4427 11.6 20.7733 11.6 20.7733ZM2.42667 37.3867C1.68265 39.4388 0.994398 41.5106 0.362667 43.6C0.336468 43.6843 0.289543 43.7607 0.226185 43.8222C0.162828 43.8837 0.085061 43.9283 0 43.952C0.613333 41.9253 1.22133 40.016 1.832 38.288C1.45067 38.2 0.909333 38.3067 0.248 38.5813C0.701333 38.2347 1.152 37.936 1.58133 37.9093C1.44533 37.88 1.09333 37.7573 0.621333 37.3227C1.072 37.4907 1.464 37.5733 1.74667 37.5147C1.688 36.7627 1.28267 35.9947 0.749333 35.2213C0.746667 35.216 1.496 35.6507 1.77067 36.1013L1.776 36.04C1.82133 35.4533 1.904 34.872 2.024 34.296V34.2907C2.11467 33.8267 2.22667 33.3627 2.36267 32.8987L2.53867 32.304C2.61333 32.072 2.69867 31.8347 2.78667 31.584C3.08 30.7813 3.41333 29.9947 3.78667 29.2267L3.88267 29.0347C4.224 28.3493 4.58667 27.672 4.97067 27.008C5.17333 26.6533 5.38133 26.3093 5.58667 25.968C5.60533 25.9493 5.616 25.9227 5.632 25.8987L5.62667 25.8933L5.648 25.8587C6.27733 24.8453 6.94933 23.8587 7.65867 22.904C7.85631 22.6364 8.05991 22.3732 8.26933 22.1147L8.424 21.9227L9.10667 23.208C8.86015 23.5616 8.62187 23.9208 8.392 24.2853C7.93333 25.0213 7.49867 25.776 7.09333 26.5413L6.51467 27.6453L5.92267 26.4747L6.50933 27.648L6.49067 27.688C6.37333 27.928 6.25067 28.168 6.136 28.408C6.06573 28.5493 5.99728 28.6916 5.93067 28.8347L5.38133 30.0187C4.85434 31.2046 4.3476 32.3995 3.86133 33.6027L3.38133 34.8213C3.34655 34.9132 3.311 35.0048 3.27467 35.096C3.15733 35.4187 3.032 35.7333 2.91733 36.048V36.0587L2.82933 36.2933L2.45333 37.3093L2.42667 37.3867ZM11.0533 25.0587C10.7896 25.5772 10.4921 26.0778 10.1627 26.5573C9.88 26.9547 9.58667 27.224 8.944 27.5253L9.00267 27.5147C9.008 27.5093 9.01067 27.5093 9.01867 27.5093C9.352 27.448 9.76533 27.312 10.0053 27.1707C10.0397 27.1532 10.072 27.1317 10.1013 27.1067C10.0878 27.1867 10.07 27.2659 10.048 27.344C10.032 27.4107 10.0053 27.488 9.97867 27.5707L9.94667 27.6587L9.85067 27.904C9.76839 28.1086 9.67764 28.3096 9.57867 28.5067C9.55733 28.5573 9.53067 28.608 9.504 28.6587L9.44 28.7627C9.37417 28.8719 9.29924 28.9754 9.216 29.072L9.10933 29.1893C9.01466 29.2854 8.91402 29.3753 8.808 29.4587C8.58589 29.6226 8.34398 29.7579 8.088 29.8613L8.13333 29.856L8.304 29.8267C8.648 29.744 8.97333 29.6 9.26667 29.4C8.89867 30.1333 8.39733 30.7253 7.592 31.032L7.73067 31.0133L7.864 30.984C8.0992 30.9375 8.32704 30.8595 8.54133 30.752C8.3984 31.1954 8.23828 31.6331 8.06133 32.064C7.872 32.528 7.67467 32.944 7.46133 33.3173C7.20183 33.7851 6.88859 34.2209 6.528 34.616C5.792 35.4107 4.648 36.056 3.78933 36.1627L3.832 36.1707C4.808 36.3733 5.81867 36.0453 6.488 35.3067C6.40047 35.4766 6.30617 35.643 6.20533 35.8053C5.81067 36.4453 5.35733 36.8347 4.46133 37.2373C5.07467 37.272 5.39467 37.128 5.656 36.7973C5.61334 36.888 5.56708 36.977 5.51733 37.064C4.944 38.0133 3.82667 38.3387 2.53867 38.28C2.81668 38.5354 2.9833 38.8897 3.00267 39.2667C2.80533 38.9093 2.59733 38.5973 2.33333 38.4747L2.64267 37.584C2.65779 37.5351 2.67559 37.487 2.696 37.44V37.424L3.048 36.4373C3.07388 36.3762 3.09701 36.3139 3.11733 36.2507L3.12533 36.224L3.57867 35.0133L3.59733 34.9547L4.04533 33.7947C4.208 33.3707 4.376 32.9627 4.536 32.568C4.864 31.7653 5.20267 30.968 5.55467 30.176C5.69333 29.8667 5.824 29.568 5.96 29.28L6.09333 28.992L6.352 28.4453C6.42667 28.2773 6.50933 28.12 6.58667 27.9573L6.65867 27.8027C6.664 27.7973 6.66667 27.7867 6.664 27.7733L6.68 27.7707C6.87733 27.3707 7.06133 26.9947 7.248 26.6427C7.648 25.8693 8.072 25.1067 8.512 24.3573L8.54667 24.296C8.78133 23.9013 9.00267 23.5493 9.20267 23.24C10.0907 23.1787 10.976 23.0693 11.856 22.92C11.8267 23.0587 11.7973 23.2053 11.7547 23.36C11.696 23.5626 11.6293 23.7628 11.5547 23.96C11.4087 24.336 11.2422 24.7036 11.056 25.0613L11.0533 25.0587ZM17.3227 26.856V39.112C17.3227 39.8587 17.2133 40.5173 16.9893 41.064C16.7895 41.586 16.4698 42.0537 16.056 42.4293C15.6501 42.799 15.1661 43.0725 14.64 43.2293C14.0987 43.3973 13.4933 43.4827 12.8427 43.4827C12.251 43.4886 11.6609 43.4223 11.0853 43.2853C11.0503 43.2755 11.0194 43.2546 10.9973 43.2258C10.9752 43.1969 10.963 43.1617 10.9627 43.1253V40.88C10.9625 40.8549 10.968 40.8301 10.9787 40.8074C10.9894 40.7847 11.005 40.7647 11.0245 40.7489C11.0439 40.733 11.0666 40.7217 11.091 40.7158C11.1154 40.7099 11.1408 40.7095 11.1653 40.7147C11.3707 40.7627 11.5973 40.8027 11.832 40.8347C12.264 40.8987 12.8347 40.9147 13.272 40.808C13.4706 40.7592 13.6547 40.6635 13.8087 40.529C13.9627 40.3944 14.0823 40.2249 14.1573 40.0347C14.2571 39.768 14.3042 39.4846 14.296 39.2V26.8533C14.296 26.76 14.368 26.6853 14.4613 26.6853H17.1547C17.2507 26.6853 17.3227 26.76 17.3227 26.8533V26.856ZM40.224 30.696C39.8383 30.2967 39.3655 29.9919 38.8427 29.8053C38.2662 29.5951 37.6562 29.4921 37.0427 29.5013C36.3653 29.5013 35.736 29.6107 35.1707 29.8347C34.616 30.0533 34.1173 30.3947 33.7173 30.84C33.2965 31.3206 32.9789 31.8824 32.784 32.4907C32.5521 33.2316 32.4413 34.0051 32.456 34.7813C32.456 35.6347 32.5733 36.3973 32.816 37.0427C33.0613 37.6827 33.408 38.224 33.8453 38.6507C34.2827 39.0693 34.816 39.3867 35.4187 39.5973C36.0565 39.81 36.725 39.9163 37.3973 39.912C37.7787 39.912 38.1093 39.8987 38.4027 39.872C38.958 39.8299 39.5051 39.7133 40.0293 39.5253C40.2827 39.4373 40.528 39.328 40.7573 39.2053C40.7844 39.1917 40.807 39.1707 40.8226 39.1448C40.8382 39.1188 40.846 39.0889 40.8453 39.0587V37.0053C40.8445 36.9774 40.8367 36.9502 40.8227 36.926C40.8087 36.9019 40.7888 36.8816 40.765 36.8671C40.7412 36.8525 40.7141 36.8441 40.6862 36.8427C40.6584 36.8412 40.6306 36.8467 40.6053 36.8587C39.917 37.2208 39.1706 37.46 38.4 37.5653C38.128 37.592 37.856 37.6053 37.5813 37.6027C37.2797 37.6094 36.9794 37.5597 36.696 37.456C36.4521 37.359 36.2314 37.2118 36.048 37.024C35.8663 36.819 35.726 36.5809 35.6347 36.3227C35.5494 36.0682 35.4975 35.8038 35.48 35.536H41.232C41.2761 35.536 41.3184 35.5187 41.3499 35.4878C41.3813 35.4568 41.3993 35.4148 41.4 35.3707V34.0827C41.4115 33.4255 41.3086 32.7713 41.096 32.1493C40.9151 31.6078 40.6174 31.1125 40.224 30.6987V30.696ZM35.536 33.44C35.5947 32.864 35.752 32.4347 36.0053 32.1653C36.1389 32.0202 36.3021 31.9054 36.4837 31.8286C36.6654 31.7517 36.8615 31.7147 37.0587 31.72C37.2851 31.715 37.5096 31.7624 37.7147 31.8587C37.9013 31.9467 38.0613 32.08 38.184 32.2427C38.3137 32.4187 38.4087 32.6178 38.464 32.8293C38.5173 33.0187 38.552 33.224 38.5653 33.44H35.536ZM63.9973 29.7413V32.232C63.9973 32.2571 63.9915 32.2818 63.9805 32.3044C63.9694 32.3269 63.9534 32.3466 63.9336 32.362C63.9138 32.3774 63.8908 32.3881 63.8663 32.3933C63.8417 32.3985 63.8163 32.3981 63.792 32.392C63.5722 32.3282 63.3429 32.3038 63.1147 32.32L62.9013 32.3093C62.5787 32.3093 62.28 32.352 62.0027 32.4347C61.7509 32.5096 61.5199 32.6419 61.328 32.8213C61.1302 33.0189 60.9813 33.26 60.8933 33.5253C60.7893 33.8187 60.736 34.1867 60.736 34.6213V39.5707C60.736 39.6152 60.7183 39.658 60.6868 39.6895C60.6553 39.721 60.6126 39.7387 60.568 39.7387H57.9173C57.8728 39.7387 57.83 39.721 57.7985 39.6895C57.767 39.658 57.7493 39.6152 57.7493 39.5707V29.8507C57.7493 29.7573 57.824 29.6827 57.9173 29.6827H59.9253C60 29.6827 60.0667 29.736 60.0853 29.8053L60.416 31.0373C60.5227 30.8587 60.6427 30.6907 60.7707 30.528C61.0939 30.0942 61.5499 29.7778 62.0693 29.6267C62.444 29.5134 62.8369 29.4736 63.2267 29.5093C63.3147 29.5093 63.4 29.5093 63.4827 29.5253C63.5578 29.5309 63.6326 29.5407 63.7067 29.5547C63.7663 29.5574 63.8254 29.5672 63.8827 29.584C63.9167 29.5939 63.9466 29.6146 63.9677 29.643C63.9889 29.6714 63.9976 29.7059 63.9973 29.7413ZM48.1147 37.192C48.1367 37.2066 48.1549 37.2263 48.1674 37.2496C48.18 37.2729 48.1866 37.2989 48.1867 37.3253V39.3013C48.1874 39.3316 48.1795 39.3615 48.1639 39.3874C48.1483 39.4134 48.1257 39.4344 48.0987 39.448C47.7905 39.5997 47.4643 39.7117 47.128 39.7813C46.3173 39.9627 45.4747 39.9573 44.664 39.76C44.2858 39.6606 43.9372 39.4712 43.648 39.208C43.342 38.9124 43.1083 38.5501 42.9653 38.1493C42.7958 37.6261 42.7164 37.0779 42.7307 36.528V32H41.6267C41.583 31.9993 41.5414 31.9817 41.5105 31.9508C41.4797 31.92 41.462 31.8783 41.4613 31.8347V30.7147C41.4608 30.6861 41.468 30.658 41.4821 30.6331C41.4961 30.6083 41.5166 30.5876 41.5413 30.5733L42.952 29.712L43.6987 27.712C43.7106 27.6806 43.7317 27.6536 43.7594 27.6346C43.787 27.6155 43.8198 27.6053 43.8533 27.6053H45.5493C45.6427 27.6053 45.7147 27.68 45.7147 27.7733V29.6773H47.9147C48.0053 29.6773 48.0827 29.752 48.0827 29.8427V31.8347C48.0827 31.8792 48.065 31.922 48.0335 31.9535C48.002 31.985 47.9592 32.0027 47.9147 32.0027H45.7147V36.5227C45.7147 36.8533 45.792 37.0933 45.9413 37.2373C46.0238 37.3141 46.1208 37.3734 46.2266 37.4119C46.3324 37.4504 46.4449 37.4672 46.5573 37.4613C46.808 37.4613 47.04 37.432 47.2587 37.3813C47.496 37.3227 47.7307 37.248 47.9627 37.168C47.9876 37.1586 48.0145 37.1554 48.041 37.1587C48.0674 37.1619 48.0927 37.1715 48.1147 37.1867V37.192ZM31.8347 26.856V39.576C31.8333 39.6192 31.8154 39.6602 31.7846 39.6905C31.7538 39.7207 31.7125 39.738 31.6693 39.7387H29.1547C29.1101 39.7387 29.0674 39.721 29.0359 39.6895C29.0044 39.658 28.9867 39.6152 28.9867 39.5707V33.0373L29.024 31.776L29.0507 31.1307L29.072 30.632L26.3573 39.6187C26.3469 39.6529 26.3257 39.6829 26.2969 39.704C26.268 39.7252 26.2331 39.7364 26.1973 39.736H23.7173C23.6817 39.736 23.6469 39.7246 23.6182 39.7035C23.5894 39.6824 23.5681 39.6527 23.5573 39.6187L21.08 30.7653C21.1231 31.547 21.1525 32.3293 21.168 33.112C21.176 33.3093 21.1813 33.4907 21.1813 33.656V39.5707C21.1813 39.6152 21.1636 39.658 21.1321 39.6895C21.1006 39.721 21.0579 39.7387 21.0133 39.7387H18.6053C18.5608 39.7387 18.518 39.721 18.4865 39.6895C18.455 39.658 18.4373 39.6152 18.4373 39.5707V26.8533C18.4373 26.7627 18.5093 26.6853 18.6027 26.6853H22.272C22.352 26.6853 22.4133 26.7387 22.4347 26.8107L25.0507 36.072L27.84 26.808C27.8508 26.774 27.8721 26.7443 27.9008 26.7232C27.9296 26.7021 27.9643 26.6907 28 26.6907H31.6693C31.76 26.6907 31.8347 26.7627 31.8347 26.8533V26.856ZM56.1947 30.696C55.8098 30.297 55.338 29.9922 54.816 29.8053C54.2387 29.5947 53.6277 29.4917 53.0133 29.5013C52.3387 29.5013 51.7067 29.6107 51.144 29.8347C50.5893 30.0533 50.0907 30.3947 49.6907 30.84C49.2699 31.3206 48.9522 31.8824 48.7573 32.4907C48.5253 33.232 48.4107 34.0053 48.4267 34.7813C48.4267 35.6347 48.5493 36.3973 48.7867 37.0427C49.0347 37.6827 49.3813 38.224 49.8187 38.6507C50.256 39.0693 50.7893 39.3867 51.392 39.5973C52.0299 39.81 52.6983 39.9163 53.3707 39.912C53.752 39.912 54.08 39.8987 54.3733 39.872C55.1959 39.8101 55.9976 39.5834 56.7307 39.2053C56.7577 39.1917 56.7803 39.1707 56.7959 39.1448C56.8115 39.1188 56.8194 39.0889 56.8187 39.0587V37.0053C56.8178 36.9774 56.81 36.9502 56.796 36.926C56.782 36.9019 56.7622 36.8816 56.7383 36.8671C56.7145 36.8525 56.6875 36.8441 56.6596 36.8427C56.6317 36.8412 56.6039 36.8467 56.5787 36.8587C55.8896 37.2214 55.1423 37.4606 54.3707 37.5653C54.1013 37.592 53.8267 37.6053 53.5547 37.6027C53.253 37.6096 52.9527 37.5598 52.6693 37.456C52.4263 37.3588 52.2065 37.2117 52.024 37.024C51.8405 36.8194 51.6984 36.5813 51.6053 36.3227C51.5209 36.0681 51.4698 35.8037 51.4533 35.536H57.2053C57.2494 35.536 57.2918 35.5187 57.3232 35.4878C57.3546 35.4568 57.3726 35.4148 57.3733 35.3707V34.0827C57.3848 33.4255 57.282 32.7713 57.0693 32.1493C56.8875 31.6076 56.5889 31.1124 56.1947 30.6987V30.696ZM54.1547 32.2427C54.2851 32.4186 54.381 32.6177 54.4373 32.8293C54.4907 33.0187 54.5253 33.224 54.5387 33.44H51.5067C51.5653 32.864 51.7253 32.4347 51.9787 32.1653C52.1123 32.0202 52.2754 31.9054 52.4571 31.8286C52.6388 31.7517 52.8348 31.7147 53.032 31.72C53.2584 31.715 53.483 31.7624 53.688 31.8587C53.872 31.9476 54.032 32.0793 54.1547 32.2427ZM16.6933 20.3467H16.328L14.4267 24.896H14.904L15.4853 23.472H17.536L18.1227 24.896H18.6027L16.6987 20.3413H16.6933V20.3467ZM15.576 23.12L16.5147 20.8693L17.424 23.12H15.576ZM19.5307 23.2133H21.0107C21.7893 23.2133 22.3147 22.5147 22.3147 21.7733C22.3147 21.0667 21.752 20.344 20.9733 20.344H19.0853V24.8987H19.528L19.5307 23.2133ZM19.5307 20.744H20.9493C21.448 20.744 21.872 21.2027 21.872 21.7733C21.872 22.3253 21.5253 22.8187 20.9867 22.8187H19.5307V20.744ZM22.5413 24.8987L23.1227 23.4747H25.168L25.7547 24.8987H26.2453L24.3413 20.344H23.9733L22.0667 24.8987H22.5387H22.5413ZM24.1573 20.872L25.0693 23.12H23.2267L24.1653 20.8693H24.16L24.1573 20.872ZM26.232 22.5867C26.232 21.4933 27.024 20.32 28.392 20.32C28.7384 20.3049 29.0817 20.3905 29.3804 20.5666C29.679 20.7427 29.9202 21.0016 30.0747 21.312L29.7147 21.528C29.5932 21.2774 29.4015 21.0676 29.1628 20.9241C28.9242 20.7807 28.6489 20.7097 28.3707 20.72C27.2827 20.72 26.6853 21.6933 26.6853 22.6107C26.6853 23.6133 27.4213 24.5253 28.3893 24.5253C28.6791 24.5296 28.9642 24.4524 29.2122 24.3024C29.4602 24.1525 29.6611 23.9359 29.792 23.6773L30.1653 23.872C29.8693 24.5547 29.0613 24.9307 28.3627 24.9307C27.1147 24.9307 26.232 23.7387 26.232 22.584V22.5867ZM31.232 24.8987H30.792V20.344H31.232V22.3707H33.928V20.344H34.3787V24.8987H33.928V22.768H31.2347V24.8987H31.232ZM38.4587 24.8987H35.4053V20.344H38.4027V20.744H35.8453V22.3867H38.0747V22.7653H35.8427V24.4987H38.4613V24.8987H38.4587Z" fill="black"/>
</g>
<defs>
<clipPath id="clip0_31_143">
<rect width="64" height="64" fill="white"/>
</clipPath>
</defs>
</svg>
