<svg width="50" height="50" viewBox="0 0 50 50" fill="none" xmlns="http://www.w3.org/2000/svg">
<path d="M42.4627 19.5946C42.3275 18.2433 42.1925 16.7567 41.9221 15.4054C41.6518 14.054 41.3816 12.7027 40.841 11.3512C40.5708 10.6756 40.3004 10 40.0302 9.45958C39.76 8.78375 39.3546 8.24333 39.0843 7.5675C38.6789 7.02708 38.2735 6.35125 37.8681 5.81083C37.4627 5.27021 36.9223 4.72958 36.3816 4.32438C35.4358 3.51354 34.3546 2.70271 33.1383 2.02708C31.9221 1.35125 30.5708 0.810833 29.2196 0.540625C27.8679 0.135208 26.5164 0 25.03 0C23.5435 0 22.1923 0.135208 20.8408 0.540625C19.4898 0.810833 18.2735 1.35125 17.0573 2.02708C15.7058 2.70271 14.6248 3.51354 13.5437 4.45937C13.0031 4.86479 12.5979 5.40521 12.0573 5.94604L10.841 7.5675C10.5708 8.24333 10.1654 8.78375 9.89518 9.45938L9.08435 11.4865C8.67893 12.8379 8.27351 14.1892 8.0031 15.5406C7.73289 16.8919 7.59768 18.2433 7.46268 19.7298C7.32747 21.2162 7.46268 22.4325 7.46268 23.784C7.46268 25.1352 7.59768 26.4865 7.8681 27.9729L8.27351 30C8.40851 30.6756 8.67893 31.3512 8.94914 32.0271C9.89497 34.5946 11.3816 37.0271 12.8679 39.3244C13.6789 40.5406 14.4898 41.6217 15.3004 42.7027C16.1112 43.784 16.9221 45 17.8681 45.946C18.2735 46.4865 18.8139 46.8919 19.3546 47.4325C19.895 47.8379 20.4358 48.2433 21.1112 48.6485C21.6518 49.054 22.3275 49.3244 23.0031 49.5946C23.2735 49.7298 23.6789 49.8648 23.9491 49.8648C24.3546 49.8648 24.6248 50 25.0304 50C25.4356 50 25.7058 50 26.1112 49.8648C26.5166 49.8648 26.7871 49.7298 27.0571 49.5946C27.7329 49.3244 28.4085 49.054 28.9491 48.6488C29.4898 48.2433 30.1654 47.8379 30.7058 47.4325C31.2464 47.0271 31.7871 46.4867 32.1925 45.946C33.1383 44.8648 33.9491 43.7837 34.76 42.7027C35.5708 41.6215 36.3816 40.4054 37.1925 39.3244C38.6789 37.0271 40.1654 34.5946 41.1112 32.0271C41.3816 31.3512 41.6518 30.6756 41.7871 30C41.9221 29.3244 42.1925 28.6487 42.1925 27.9729C42.4627 26.6217 42.5977 25.2702 42.5977 23.7837C42.5977 22.4325 42.5977 20.946 42.4627 19.5946ZM10.0302 25.1352C10.0302 25.1352 17.7329 26.8919 22.7329 37.2973C22.5977 37.2973 9.35456 37.0271 10.0302 25.1352ZM27.4627 37.2973C32.3275 26.8919 40.1654 25.1352 40.1654 25.1352C40.841 37.0269 27.4627 37.2973 27.4627 37.2973Z" fill="black"/>
</svg>
