<svg width="64" height="64" viewBox="0 0 64 64" fill="none" xmlns="http://www.w3.org/2000/svg">
<g clip-path="url(#clip0_31_128)">
<path d="M60.5199 11.4586C58.6584 9.59761 56.1468 8.53239 53.515 8.48762C50.8832 8.44284 48.3369 9.422 46.4132 11.2186C46.3169 11.3102 46.2403 11.4205 46.1879 11.5426C46.1356 11.6648 46.1086 11.7963 46.1086 11.9292C46.1086 12.0621 46.1356 12.1937 46.1879 12.3158C46.2403 12.438 46.3169 12.5483 46.4132 12.6399L47.6399 13.8932C47.8051 14.057 48.0238 14.1557 48.256 14.1714C48.4881 14.1871 48.7181 14.1186 48.9039 13.9786C50.0771 13.0432 51.5664 12.5973 53.0607 12.7338C54.555 12.8704 55.9387 13.579 56.923 14.7116C57.9072 15.8442 58.4159 17.3132 58.3428 18.8119C58.2696 20.3107 57.6204 21.7232 56.5305 22.7546C48.4692 30.8079 37.7145 8.22924 13.3012 19.8666C12.8888 20.0642 12.5218 20.3453 12.2236 20.692C11.9253 21.0387 11.7022 21.4435 11.5684 21.8809C11.4345 22.3182 11.3929 22.7785 11.446 23.2328C11.4992 23.687 11.646 24.1253 11.8772 24.5199L16.0665 31.7546C16.5007 32.5091 17.2153 33.0616 18.0548 33.2919C18.8944 33.5221 19.7909 33.4114 20.5492 32.9839L20.6479 32.9306L20.5705 32.9839L22.4052 31.9599C24.4748 30.6753 26.4312 29.2167 28.2532 27.5999C28.4335 27.4354 28.6667 27.3406 28.9106 27.3328C29.1546 27.325 29.3934 27.4046 29.5839 27.5572C29.6872 27.6435 29.7711 27.7507 29.83 27.8718C29.8889 27.9929 29.9214 28.1251 29.9255 28.2596C29.9295 28.3942 29.9049 28.5281 29.8534 28.6525C29.8019 28.7769 29.7245 28.8889 29.6265 28.9812C27.7085 30.7076 25.6418 32.2612 23.4505 33.6239H23.3865L21.5305 34.6639C20.7462 35.1035 19.8616 35.3332 18.9625 35.3306C18.0312 35.3342 17.1154 35.0924 16.3074 34.6294C15.4993 34.1663 14.8276 33.4985 14.3599 32.6932L10.3999 25.8559C2.82652 31.2532 -1.82948 41.6079 0.693183 54.7252C0.734608 54.9459 0.851418 55.1452 1.02362 55.2892C1.19583 55.4332 1.41272 55.5129 1.63718 55.5146H6.10385C6.34966 55.5203 6.58842 55.4322 6.77166 55.2683C6.95491 55.1043 7.06891 54.8768 7.09052 54.6319C7.29662 53.0396 8.07545 51.5767 9.28148 50.5167C10.4875 49.4567 12.0382 48.8721 13.6439 48.8721C15.2495 48.8721 16.8002 49.4567 18.0062 50.5167C19.2122 51.5767 19.9911 53.0396 20.1972 54.6319C20.2252 54.8648 20.3375 55.0793 20.5129 55.2351C20.6883 55.3908 20.9146 55.477 21.1492 55.4772H25.5172C25.7513 55.4753 25.9767 55.3885 26.1517 55.2331C26.3267 55.0777 26.4395 54.8641 26.4692 54.6319C26.6775 53.0416 27.4572 51.5814 28.6627 50.5236C29.8682 49.4657 31.4173 48.8824 33.0212 48.8824C34.625 48.8824 36.1742 49.4657 37.3797 50.5236C38.5852 51.5814 39.3648 53.0416 39.5732 54.6319C39.6029 54.8645 39.7161 55.0785 39.8917 55.234C40.0673 55.3895 40.2933 55.4759 40.5279 55.4772H44.8665C45.1205 55.4773 45.3643 55.3775 45.5454 55.1994C45.7265 55.0213 45.8303 54.7792 45.8345 54.5252C45.9332 48.4079 47.5839 41.3786 52.2879 37.8586C68.5759 25.6719 64.2905 15.2292 60.5199 11.4586ZM43.9092 29.8612L40.8025 28.3039C40.8029 27.9717 40.8882 27.6452 41.0504 27.3553C41.2126 27.0655 41.4463 26.8219 41.7292 26.6479C42.0121 26.4739 42.3348 26.3751 42.6667 26.361C42.9986 26.3469 43.3285 26.418 43.6251 26.5675C43.9218 26.7169 44.1752 26.9398 44.3614 27.2149C44.5475 27.49 44.6602 27.8081 44.6887 28.1391C44.7172 28.47 44.6605 28.8027 44.524 29.1056C44.3876 29.4084 44.1759 29.6713 43.9092 29.8692V29.8612Z" fill="black"/>
</g>
<defs>
<clipPath id="clip0_31_128">
<rect width="64" height="64" fill="white"/>
</clipPath>
</defs>
</svg>
